<svg width="23" height="16" viewBox="0 0 23 16" fill="none" xmlns="http://www.w3.org/2000/svg">
<path fill-rule="evenodd" clip-rule="evenodd" d="M22.0166 0.629907C22.3261 0.939496 22.5 1.35933 22.5 1.79709C22.5 2.23485 22.3261 2.65469 22.0166 2.96428L9.6426 15.3383C9.47908 15.5019 9.28493 15.6316 9.07126 15.7201C8.85758 15.8087 8.62856 15.8542 8.39728 15.8542C8.16599 15.8542 7.93697 15.8087 7.72329 15.7201C7.50962 15.6316 7.31547 15.5019 7.15195 15.3383L1.004 9.19147C0.846322 9.03918 0.720553 8.85701 0.634031 8.65559C0.547509 8.45418 0.501967 8.23755 0.500062 8.01834C0.498157 7.79914 0.539928 7.58175 0.622937 7.37886C0.705946 7.17597 0.82853 6.99164 0.983537 6.83663C1.13854 6.68163 1.32287 6.55904 1.52576 6.47603C1.72865 6.39303 1.94604 6.35125 2.16524 6.35316C2.38445 6.35506 2.60108 6.40061 2.8025 6.48713C3.00391 6.57365 3.18608 6.69942 3.33837 6.8571L8.39672 11.9155L19.6812 0.629907C19.8345 0.476495 20.0165 0.354796 20.2169 0.271764C20.4173 0.188733 20.632 0.145996 20.8489 0.145996C21.0658 0.145996 21.2806 0.188733 21.4809 0.271764C21.6813 0.354796 21.8633 0.476495 22.0166 0.629907Z" fill="#77C448"/>
</svg>
