<svg width="18" height="19" viewBox="0 0 18 19" fill="none" xmlns="http://www.w3.org/2000/svg">
<path d="M3.92851 10.8979L9.59177 16.5612C9.82293 16.7923 9.93388 17.062 9.92464 17.3702C9.91539 17.6784 9.7948 17.9481 9.56288 18.1793C9.33173 18.3911 9.06205 18.5021 8.75384 18.5121C8.44564 18.5221 8.17596 18.4112 7.94481 18.1793L0.31674 10.5512C0.201163 10.4356 0.119104 10.3104 0.0705614 10.1756C0.0220191 10.0407 -0.00148134 9.89625 5.96805e-05 9.74215C0.0016007 9.58805 0.0258715 9.44358 0.0728727 9.30874C0.119874 9.1739 0.201549 9.04869 0.317896 8.93312L7.94596 1.30505C8.15785 1.09316 8.42291 0.987213 8.74113 0.987213C9.05935 0.987213 9.33365 1.09316 9.56404 1.30505C9.79519 1.5362 9.91077 1.81089 9.91077 2.12911C9.91077 2.44733 9.79519 2.72163 9.56404 2.95202L3.92851 8.58638H16.8442C17.1717 8.58638 17.4464 8.69734 17.6683 8.91925C17.8902 9.14115 18.0008 9.41546 18 9.74215C17.9992 10.0688 17.8883 10.3435 17.6671 10.5662C17.446 10.7889 17.1717 10.8995 16.8442 10.8979H3.92851Z" fill="black"/>
</svg>
