<svg width="12" height="13" viewBox="0 0 12 13" fill="none" xmlns="http://www.w3.org/2000/svg">
<path d="M3.51799 1.5C3.80576 1.5 4.95683 4.08993 4.95683 4.3777C4.95683 4.95324 4.09353 5.52878 3.80576 6.10432C3.51799 6.67986 4.09353 7.2554 4.66906 7.83094C4.89353 8.0554 5.82014 8.98201 6.39568 8.69424C6.97122 8.40648 7.54676 7.54317 8.1223 7.54317C8.41007 7.54317 11 8.69424 11 8.98201C11 10.1331 10.1367 10.9964 9.27338 11.2842C8.41007 11.5719 7.83453 11.5719 6.68345 11.2842C5.53237 10.9964 4.66906 10.7086 3.23022 9.26978C1.79137 7.83094 1.5036 6.96763 1.21583 5.81655C0.928058 4.66547 0.928058 4.08993 1.21583 3.22662C1.5036 2.36331 2.36691 1.5 3.51799 1.5Z" stroke="white" stroke-width="1.15108" stroke-linecap="round" stroke-linejoin="round"/>
</svg>
